<?xml version="1.0" standalone="no"?>
<!DOCTYPE svg PUBLIC "-//W3C//DTD SVG 20010904//EN"
 "http://www.w3.org/TR/2001/REC-SVG-20010904/DTD/svg10.dtd">
<svg version="1.0" xmlns="http://www.w3.org/2000/svg"
 width="200.000000pt" height="200.000000pt" viewBox="0 0 200.000000 200.000000"
 preserveAspectRatio="xMidYMid meet">
<metadata>
Created by potrace 1.10, written by Peter Selinger 2001-2011
</metadata>
<g transform="translate(0.000000,200.000000) scale(0.100000,-0.100000)"
fill="#000000" stroke="none">
<path d="M12 1383 l3 -607 180 -37 c469 -99 524 -114 770 -219 235 -99 396
-148 597 -180 54 -8 382 -39 423 -40 6 0 8 21 5 56 l-5 55 -118 63 c-108 58
-122 63 -155 55 -21 -4 -88 -18 -149 -29 l-113 -21 -212 180 -212 181 -204 0
-204 0 -107 51 c-191 93 -292 138 -286 130 2 -5 34 -21 70 -37 36 -16 65 -32
65 -36 0 -5 8 -8 19 -8 10 0 24 -7 31 -15 7 -9 15 -14 17 -11 2 2 46 -17 96
-42 l92 -45 207 -1 207 -1 38 -34 c21 -18 72 -63 113 -100 41 -36 77 -68 80
-71 3 -3 46 -39 95 -81 l91 -77 54 10 c30 5 69 11 85 14 17 3 58 12 92 19 71
16 71 16 208 -59 75 -41 80 -46 83 -80 3 -34 1 -36 -25 -36 -33 0 -230 18
-288 25 -22 3 -58 8 -80 10 -50 5 -121 19 -205 41 -36 9 -69 17 -75 19 -33 6
-136 40 -170 55 -93 41 -290 125 -295 126 -3 0 -12 4 -20 7 -33 14 -106 38
-129 43 -14 3 -29 8 -35 11 -5 4 -19 8 -30 9 -12 1 -95 18 -185 38 -90 20
-178 39 -195 42 -37 6 -105 21 -163 36 -35 9 -43 15 -43 34 -1 56 -1 234 0
237 5 10 4 57 -1 57 -3 0 -5 84 -3 188 1 103 3 294 3 425 l1 237 970 0 970 0
0 -72 c0 -326 12 -1463 15 -1467 3 -2 5 347 5 777 l0 782 -990 0 -990 0 2
-607z"/>
<path d="M94 1081 c3 -5 20 -14 38 -20 38 -13 26 0 -15 17 -16 7 -26 8 -23 3z"/>
<path d="M187 1039 c7 -7 15 -10 18 -7 3 3 -2 9 -12 12 -14 6 -15 5 -6 -5z"/>
<path d="M2 388 l-2 -388 1000 0 1000 0 -2 148 -2 147 -3 -142 -4 -143 -989 0
-990 0 -3 383 -2 382 -3 -387z"/>
<path d="M155 430 c-96 -5 -74 -6 114 -8 129 -1 232 0 229 3 -7 8 -212 10
-343 5z"/>
<path d="M525 421 c11 -5 54 -11 95 -15 125 -11 289 -44 476 -96 99 -28 226
-59 284 -70 120 -23 591 -82 598 -76 5 6 -32 12 -148 26 -47 6 -101 13 -120
15 -19 3 -57 7 -85 10 -80 9 -243 34 -283 44 -68 16 -277 73 -284 77 -4 3 -36
11 -70 19 -35 7 -95 20 -133 29 -118 25 -375 54 -330 37z"/>
</g>
</svg>
